<svg xmlns="http://www.w3.org/2000/svg" id="Layer_1" width="800" height="800" data-name="Layer 1" viewBox="0 0 24 24"><defs><style>.cls-1{fill:none;stroke:#020202;stroke-miterlimit:10;stroke-width:1.91px}</style></defs><path d="M3.26,4.36H20.74A1.76,1.76,0,0,1,22.5,6.13v0a9.69,9.69,0,0,1-9.69,9.69H11.19A9.69,9.69,0,0,1,1.5,6.13v0A1.76,1.76,0,0,1,3.26,4.36Z" class="cls-1"/><path d="M3.35,4.36h17.3A1.85,1.85,0,0,1,22.5,6.22V9.45A10.19,10.19,0,0,1,12.31,19.64h-.63A10.19,10.19,0,0,1,1.5,9.45V6.22A1.85,1.85,0,0,1,3.35,4.36Z" class="cls-1"/><line x1="14.86" x2="16.3" y1="10.09" y2="11.52" class="cls-1"/><line x1="17.73" x2="19.64" y1="8.18" y2="8.18" class="cls-1"/><line x1="12.95" x2="14.39" y1="6.27" y2="7.7" class="cls-1"/></svg>